<svg viewBox="0 0 280 120" xmlns="http://www.w3.org/2000/svg">
  <!-- Spiral/Geometric Design -->
  <g id="spiral">
    <!-- Outer spiral segments -->
    <path d="M 35 18 L 55 18 L 55 38 L 35 38 Z" fill="none" stroke="#1E5BA8" stroke-width="3" stroke-linecap="round" stroke-linejoin="round"/>
    <path d="M 28 25 L 48 25 L 48 45 L 28 45 Z" fill="none" stroke="#1E5BA8" stroke-width="3" stroke-linecap="round" stroke-linejoin="round"/>
    <path d="M 21 32 L 41 32 L 41 52 L 21 52 Z" fill="none" stroke="#1E5BA8" stroke-width="3" stroke-linecap="round" stroke-linejoin="round"/>
    <path d="M 28 39 L 48 39 L 48 59 L 28 59 Z" fill="none" stroke="#1E5BA8" stroke-width="3" stroke-linecap="round" stroke-linejoin="round"/>
    <path d="M 35 46 L 55 46 L 55 66 L 35 66 Z" fill="none" stroke="#1E5BA8" stroke-width="3" stroke-linecap="round" stroke-linejoin="round"/>
    <path d="M 42 39 L 62 39 L 62 59 L 42 59 Z" fill="none" stroke="#1E5BA8" stroke-width="3" stroke-linecap="round" stroke-linejoin="round"/>
    <path d="M 49 32 L 69 32 L 69 52 L 49 52 Z" fill="none" stroke="#1E5BA8" stroke-width="3" stroke-linecap="round" stroke-linejoin="round"/>
    <path d="M 42 25 L 62 25 L 62 45 L 42 45 Z" fill="none" stroke="#1E5BA8" stroke-width="3" stroke-linecap="round" stroke-linejoin="round"/>
    <path d="M 35 18 L 55 18 L 55 38" fill="none" stroke="#1E5BA8" stroke-width="3" stroke-linecap="round"/>
  </g>

  <!-- Text: MCC -->
  <text x="78" y="50" font-family="Arial, Helvetica, sans-serif" font-size="48" font-weight="bold" fill="#001F5C">MCC</text>

  <!-- Subtitle: Creative Culture Ambience -->
  <text x="78" y="68" font-family="Arial, Helvetica, sans-serif" font-size="10" fill="#666666" letter-spacing="1">Creative Culture Ambience</text>
</svg>